PathFileType	4	(X/Y/Z)	C:\Users\Basilio\Documents\Thesis Gigler\squatting_fais\c3dfiles\054\SLS_back_pre3\markers_experimental.trc
DataRate	CameraRate	NumFrames	NumMarkers	Units	OrigDataRate	OrigDataStartFrame	OrigNumFrames
200.000000	200.000000	4	61	mm	200.000000	552	1472
Frame#	Time	FHD			LBHD			RBHD			C7			T10			CLAV			LSHO			LUUPA			LMUPA			LDUPA			LLEP			LMEP			LRAD			LUL			LRFIN			RSHO			RUPA1			RMUPA			RDUPA			RLEP			RMEP			RRAD			RUL			RUFIN			LASI			RASI			USACR			LSACR			RSACR			LTHI1			LTHI2			LTHI3			LTHI4			LLFC			LMFC			LTIB1			LTIB2			LTIB3			LTIB4			LLMAL			LMMAL			LHEE			LMT1			LMT2			LMT5			RTHI			RTHI2			RTHI3			RTHI4			RLFC			RMFC			RTIB1			RTIB2			RTIB3			RTIB4			RLMAL			RMMAL			RHEE			RMT1			RMT2			RMT5			
		X1	Y1	Z1	X2	Y2	Z2	X3	Y3	Z3	X4	Y4	Z4	X5	Y5	Z5	X6	Y6	Z6	X7	Y7	Z7	X8	Y8	Z8	X9	Y9	Z9	X10	Y10	Z10	X11	Y11	Z11	X12	Y12	Z12	X13	Y13	Z13	X14	Y14	Z14	X15	Y15	Z15	X16	Y16	Z16	X17	Y17	Z17	X18	Y18	Z18	X19	Y19	Z19	X20	Y20	Z20	X21	Y21	Z21	X22	Y22	Z22	X23	Y23	Z23	X24	Y24	Z24	X25	Y25	Z25	X26	Y26	Z26	X27	Y27	Z27	X28	Y28	Z28	X29	Y29	Z29	X30	Y30	Z30	X31	Y31	Z31	X32	Y32	Z32	X33	Y33	Z33	X34	Y34	Z34	X35	Y35	Z35	X36	Y36	Z36	X37	Y37	Z37	X38	Y38	Z38	X39	Y39	Z39	X40	Y40	Z40	X41	Y41	Z41	X42	Y42	Z42	X43	Y43	Z43	X44	Y44	Z44	X45	Y45	Z45	X46	Y46	Z46	X47	Y47	Z47	X48	Y48	Z48	X49	Y49	Z49	X50	Y50	Z50	X51	Y51	Z51	X52	Y52	Z52	X53	Y53	Z53	X54	Y54	Z54	X55	Y55	Z55	X56	Y56	Z56	X57	Y57	Z57	X58	Y58	Z58	X59	Y59	Z59	X60	Y60	Z60	X61	Y61	Z61	

553	2.76	-137.7281799316407	1781.753662109375	-1123.341918945313	-293.4836425781251	1716.851928710938	-1196.617553710938	-314.4812011718751	1719.267944335938	-1057.641235351563	-339.0457153320313	1558.454467773438	-1105.3759765625	-397.7278747558595	1236.990356445313	-1077.579467773438	-198.7284545898438	1492.214599609375	-1109.910888671875	-272.1625976562501	1541.916870117188	-1260.686889648438	-125.8992691040039	1409.94384765625	-1374.228271484375	-92.50360107421876	1443.90478515625	-1363.5087890625	-57.84525299072267	1398.813232421875	-1383.265380859375	0.101356752216816	1400.598999023438	-1380.448120117188	-1.258423805236817	1339.76171875	-1330.5263671875	254.5114746093751	1430.482543945313	-1293.230590820313	270.8457946777344	1391.214233398438	-1358.687133789063	346.0496520996094	1448.238159179688	-1310.40673828125	-257.0382385253907	1557.657592773438	-963.235778808594	-111.3875198364258	1441.405395507813	-827.6939086914065	-74.16422271728517	1469.284790039063	-839.677429199219	-44.84947204589844	1421.248413085938	-815.4743652343752	-0.9164932966232302	1412.68994140625	-816.3652954101565	-8.403723716735842	1354.499877929688	-865.3070068359377	265.3114929199219	1442.921142578125	-922.6787109375002	266.8701171875001	1410.131103515625	-849.265808105469	343.5171813964844	1465.279907226563	-910.854431152344	-231.1524200439454	1036.789428710938	-1180.2978515625	-242.1355895996094	1053.317260742188	-929.7454223632815	-409.7190856933595	1154.692504882813	-1069.2822265625	-418.8225708007814	1122.315185546875	-1096.068115234375	-421.3157653808595	1124.856323242188	-1038.557006835938	-313.7378234863282	797.0042724609377	-1254.627685546875	-274.2934570312501	721.5974121093751	-1245.38623046875	-227.7315979003907	730.2625122070314	-1238.22119140625	-297.4618530273438	669.0711669921876	-1222.661010742188	-283.3309326171876	516.5945434570314	-1183.720703125	-244.5516052246094	528.8446044921876	-1052.119506835938	-255.0987701416016	359.1464233398438	-1113.806762695313	-311.7448120117188	310.7960205078126	-1161.332153320313	-273.6421813964844	307.9128417968751	-1137.615966796875	-285.3565368652344	237.9107208251954	-1091.963500976563	-359.0090332031251	106.8394393920899	-1107.922607421875	-324.9380493164063	136.5794982910157	-1021.915893554688	-427.7864990234376	102.5456466674805	-1045.3603515625	-216.9089508056641	59.54652023315431	-1023.162292480469	-208.5588531494141	53.36310958862306	-1071.382690429688	-261.2524108886719	34.91817474365235	-1121.62353515625	-337.4031677246094	765.8142089843751	-820.9420166015627	-298.3621826171876	712.5089111328126	-809.7746582031252	-264.9172973632813	712.1303100585939	-812.4490966796877	-325.9017333984376	633.2929687500001	-819.423522949219	-347.8824768066407	583.0038452148439	-825.6067504882815	-278.7217712402344	539.7312622070314	-939.6348876953127	-416.3632202148439	498.1936645507814	-852.8113403320315	-508.1697082519532	553.3942871093751	-852.8803710937502	-503.0980529785157	507.7648315429689	-859.5962524414065	-538.1243896484376	482.984344482422	-898.852478027344	-713.3514404296876	511.7969055175782	-938.6318969726565	-669.2622070312501	468.1865539550782	-1011.356262207031	-709.9604492187501	570.4946289062501	-1006.872497558594	-766.0223388671876	355.0809631347657	-1023.861450195313	-780.126892089844	355.0290832519532	-977.9143676757815	-808.2861328125002	409.032684326172	-944.4199829101565	
554	2.765	-136.9072875976563	1780.878662109375	-1123.4169921875	-293.0754699707032	1716.243408203125	-1196.625854492188	-313.8546447753907	1718.807861328125	-1057.537109375	-338.7078247070313	1557.932983398438	-1105.175537109375	-397.7783813476564	1236.504760742188	-1077.32568359375	-198.5304412841797	1491.552612304688	-1109.789794921875	-271.5372924804688	1540.799682617188	-1260.049560546875	-125.6143493652344	1409.396362304688	-1374.15625	-92.23746490478517	1443.272216796875	-1363.340942382813	-57.50385665893556	1398.081176757813	-1383.151611328125	0.2738423347473145	1400.0302734375	-1380.358520507813	-0.9868068099021914	1338.882202148438	-1330.702026367188	254.6612854003907	1429.786499023438	-1293.304443359375	271.8507995605469	1390.41796875	-1358.821044921875	346.2660217285157	1447.49658203125	-1310.503173828125	-256.6538085937501	1557.181396484375	-963.1362915039065	-110.7812194824219	1440.895629882813	-827.7248535156252	-73.43688201904298	1468.712036132813	-839.6433715820315	-44.14279556274415	1420.869384765625	-815.5352783203127	-0.4607474207878114	1412.181884765625	-816.3612060546877	-7.926786422729494	1353.889282226563	-865.2537231445315	265.6486816406251	1441.949340820313	-922.6245117187502	267.3842163085938	1409.611450195313	-849.418151855469	343.9847412109376	1464.63330078125	-911.1514892578127	-231.5373992919922	1036.279174804688	-1180.290649414063	-242.3838500976563	1052.650634765625	-929.8057861328127	-409.9493408203126	1154.347778320313	-1069.034912109375	-419.2194824218751	1121.9638671875	-1095.947998046875	-421.5737609863282	1124.450317382813	-1038.410522460938	-313.7320556640626	796.4778442382815	-1254.643798828125	-274.0004882812501	721.0888671875001	-1245.352172851563	-227.4993591308594	730.0615234375001	-1238.186401367188	-297.1046447753907	668.6288452148439	-1222.69091796875	-282.6477355957032	516.2904663085939	-1183.746337890625	-243.8500366210938	528.6031494140626	-1052.157958984375	-254.5648803710938	358.9438781738282	-1113.851928710938	-311.2204589843751	310.6303710937501	-1161.341552734375	-273.1155395507813	307.7662048339844	-1137.558837890625	-285.1115112304688	237.7138824462891	-1091.892578125	-358.9550781250001	106.8437652587891	-1107.86865234375	-324.9433593750001	136.5278625488282	-1021.806884765625	-427.8253173828126	102.4999618530274	-1045.308959960938	-216.9382629394532	59.4935760498047	-1023.064636230469	-208.5751953125001	53.37070083618165	-1071.301025390625	-261.2563781738282	34.99990844726563	-1121.636474609375	-337.8064575195313	765.3875122070314	-820.8516235351565	-298.8481445312501	711.7587890625001	-809.696228027344	-265.2365112304688	711.3532714843751	-812.5622558593752	-326.2307739257813	632.5417480468751	-819.495544433594	-348.4714050292969	582.2777709960939	-825.9426269531252	-279.1347961425782	539.1493530273439	-939.8460083007815	-416.9478759765626	497.5503540039064	-852.8052978515627	-508.6153869628907	552.9249877929689	-852.810241699219	-503.4627685546876	507.1828613281251	-859.8320312500002	-538.4490356445314	482.2634277343751	-898.8256835937502	-714.2841186523439	511.388397216797	-938.4716796875002	-669.9511108398439	467.7324829101564	-1011.228515625	-710.6103515625001	570.1035766601564	-1006.697631835938	-767.0551757812501	354.6428527832032	-1023.808044433594	-781.4627685546877	354.6536865234376	-977.3098754882815	-808.8836059570315	408.5513305664064	-944.3732910156252	
555	2.77	-136.4533386230469	1780.145385742188	-1123.23583984375	-292.5158691406251	1715.751586914063	-1196.449096679688	-313.2819824218751	1718.145263671875	-1057.544067382813	-338.4082336425782	1557.308227539063	-1104.907348632813	-398.0176391601564	1236.039794921875	-1077.110229492188	-198.2465209960938	1490.734008789063	-1109.681762695313	-271.3865661621094	1540.43310546875	-1259.8896484375	-125.4571380615235	1408.695068359375	-1374.005981445313	-92.07614135742189	1442.65283203125	-1363.223999023438	-57.2915382385254	1397.430053710938	-1383.091796875	0.4858536124229432	1399.509643554688	-1380.280395507813	-0.8150489926338198	1338.778198242188	-1330.708862304688	254.6344451904297	1429.11083984375	-1293.356689453125	271.1651000976563	1390.004272460938	-1358.813720703125	346.7262268066407	1446.692626953125	-1310.570922851563	-256.1439208984376	1556.519653320313	-963.028747558594	-110.3758697509766	1440.46484375	-827.4714965820315	-72.7008514404297	1468.47705078125	-839.8316650390627	-43.81203079223634	1420.456665039063	-815.3403320312502	0.1856025606393814	1411.797607421875	-816.517761230469	-7.39276695251465	1353.492065429688	-865.037292480469	266.3163146972657	1441.294677734375	-922.8481445312502	267.8783569335938	1409.141967773438	-849.6707153320315	344.5050354003907	1464.207275390625	-911.4729003906252	-233.2244110107422	1035.389526367188	-1179.234619140625	-242.8487396240235	1051.857543945313	-929.6973876953127	-410.3164978027345	1153.88427734375	-1068.905029296875	-419.6363830566407	1121.53369140625	-1095.7333984375	-421.7592163085939	1123.943237304688	-1038.183471679688	-313.7028808593751	796.0185546875002	-1254.651733398438	-273.7062072753907	720.7451171875001	-1245.397827148438	-227.3278045654297	729.8364868164064	-1238.088623046875	-296.8718872070313	668.2393188476564	-1222.759155273438	-281.8661804199219	515.8816528320314	-1183.705810546875	-243.0522003173829	528.3712158203126	-1052.131591796875	-253.9171905517579	358.6981811523438	-1113.875732421875	-310.7053833007813	310.4257202148438	-1161.36669921875	-272.6949768066407	307.5747680664063	-1137.414672851563	-284.7305603027344	237.4030456542969	-1091.834228515625	-358.9791259765626	106.8610305786133	-1107.756591796875	-324.9898071289063	136.3883514404297	-1021.624206542969	-427.7945251464845	102.4439010620117	-1045.263793945313	-217.0689392089844	59.40793991088869	-1022.982116699219	-208.5730438232422	53.37406158447267	-1071.244384765625	-261.2717590332032	35.00899505615235	-1121.599243164063	-338.4341430664063	764.7489013671876	-820.9473266601565	-299.1282958984376	711.2364501953126	-809.8223876953127	-265.8640136718751	710.7039184570314	-812.6199340820315	-326.8141479492188	631.9711303710939	-819.584899902344	-348.9416198730469	581.5037231445314	-825.9738769531252	-279.8786621093751	538.3657226562501	-940.0025024414065	-417.3017883300782	496.9913330078126	-852.8593750000002	-509.2498474121095	552.3412475585939	-852.8009033203127	-504.3150634765626	506.5612182617189	-859.672546386719	-539.1111450195314	481.7935180664064	-899.161315917969	-715.0275268554689	510.8565063476564	-938.3824462890627	-670.5892333984376	467.2771301269532	-1011.15673828125	-711.3038940429689	569.6877441406251	-1006.671936035156	-767.9248657226564	354.3421630859376	-1023.628540039063	-781.886657714844	354.2155151367188	-977.6630859375002	-809.5480957031252	408.1820068359376	-944.2788085937502	
556	2.775	-135.6230010986328	1779.201416015625	-1123.350830078125	-292.1157531738282	1715.177368164063	-1196.445434570313	-312.9092712402344	1717.681274414063	-1057.322265625	-337.9488220214844	1556.71728515625	-1104.701171875	-398.0606689453126	1235.592041015625	-1076.9541015625	-197.818588256836	1489.999755859375	-1109.478637695313	-271.0433959960938	1539.8349609375	-1259.748046875	-125.1817703247071	1408.355590820313	-1373.732543945313	-91.87715911865236	1442.101196289063	-1363.1171875	-57.16791915893556	1396.769897460938	-1383.00732421875	0.6643987894058229	1398.91748046875	-1380.169921875	-0.5498353838920594	1338.27294921875	-1330.604125976563	255.0604095458985	1428.45849609375	-1293.337036132813	271.5536804199219	1389.303955078125	-1358.8125	347.0677490234376	1446.052001953125	-1310.611083984375	-255.797103881836	1555.852783203125	-962.873229980469	-110.0027160644532	1440.13916015625	-827.3317871093752	-72.31114959716798	1468.000854492188	-839.711120605469	-43.25231933593751	1419.982666015625	-815.2794189453127	0.9019390344619753	1411.334838867188	-816.5427856445315	-6.793097972869875	1352.835205078125	-865.0110473632815	266.8575744628907	1440.828735351563	-923.1715087890627	268.4368591308594	1408.595092773438	-849.800720214844	344.9411621093751	1463.727294921875	-911.790222167969	-233.3903961181641	1034.959716796875	-1179.277221679688	-243.1914672851563	1051.09765625	-929.689392089844	-410.8782043457032	1153.47216796875	-1068.6728515625	-419.4645996093751	1121.11572265625	-1095.667358398438	-422.0299377441407	1123.425659179688	-1038.006958007813	-313.6341857910157	795.5598754882815	-1254.658569335938	-273.4467468261719	720.3927612304689	-1245.363403320313	-227.0813293457032	729.5853881835939	-1238.063720703125	-296.5708312988282	667.7165527343751	-1222.818481445313	-280.9403991699219	515.5045776367189	-1183.768310546875	-241.9631652832032	528.1677856445314	-1052.247680664063	-253.2659606933594	358.3666687011719	-1113.751831054688	-310.1112976074219	310.2004699707032	-1161.352905273438	-272.4483337402344	307.3736877441407	-1137.3525390625	-284.4744873046876	237.1468963623047	-1091.757080078125	-358.8065490722657	106.8914337158203	-1107.643310546875	-325.0470581054688	136.3282775878907	-1021.460266113281	-427.782440185547	102.4082183837891	-1045.21337890625	-217.0847930908204	59.31379318237306	-1022.871154785156	-208.593490600586	53.40132141113283	-1071.190185546875	-261.3216857910157	35.05530166625977	-1121.572631835938	-338.8259887695313	764.0546264648439	-821.0291748046877	-299.7863464355469	710.5396728515626	-809.9403076171877	-266.4803771972657	710.1667480468751	-812.7182617187502	-327.4432067871094	631.3416137695314	-819.7249145507815	-349.6361389160157	580.6726684570314	-825.9532470703127	-280.5230712890626	537.7065429687501	-940.1776123046877	-418.0151367187501	496.2745361328126	-853.0398559570315	-509.6174621582032	551.7160034179689	-852.7070312500002	-505.071746826172	505.8895874023439	-859.708435058594	-539.9031372070314	481.4100036621095	-898.9199829101565	-715.5969238281251	510.3639221191407	-938.1646118164065	-671.2977294921876	466.7737426757814	-1011.160034179688	-711.8833007812501	569.1925048828126	-1006.51806640625	-768.2571411132815	354.0215148925782	-1023.635314941406	-782.4414672851565	353.7794494628907	-977.6262207031252	-810.5327758789065	407.696014404297	-943.9689941406252	
